<?xml version="1.0" standalone="no"?><!DOCTYPE svg PUBLIC "-//W3C//DTD SVG 1.1//EN" "http://www.w3.org/Graphics/SVG/1.1/DTD/svg11.dtd"><svg t="1616296136392" class="icon" viewBox="0 0 1262 1024" version="1.1" xmlns="http://www.w3.org/2000/svg" p-id="6461" width="157.75" height="128" xmlns:xlink="http://www.w3.org/1999/xlink"><defs><style type="text/css"></style></defs><path d="M252.537842 443.55338a80.187273 80.187273 0 0 1-65.060371-126.836347L371.243311 60.080375A80.427595 80.427595 0 0 1 436.584056 26.702389a80.187273 80.187273 0 0 1 65.073722 126.836346L317.838533 410.121989a80.427595 80.427595 0 0 1-65.300691 33.377986z" fill="#FF6252" p-id="6462"></path><path d="M436.584056 53.404778a53.111051 53.111051 0 0 1 31.014825 9.946639 53.631748 53.631748 0 0 1 12.336503 74.606475L296.129491 394.567848a53.471533 53.471533 0 1 1-86.956329-62.269971l183.779191-256.609956A53.498236 53.498236 0 0 1 436.584056 53.404778m0-53.404778a107.19674 107.19674 0 0 0-87.049787 44.592989L165.768429 301.216296a106.876311 106.876311 0 0 0 173.792498 124.459834L523.36682 169.052823A106.809555 106.809555 0 0 0 436.584056 0z" fill="#434E52" p-id="6463"></path><path d="M1010.218123 443.55338a80.427595 80.427595 0 0 1-65.300692-33.377986L761.13824 153.538735a80.173922 80.173922 0 0 1 130.374414-93.45836l183.77919 256.609956a80.107166 80.107166 0 0 1-65.073721 126.836346z" fill="#FF6252" p-id="6464"></path><path d="M826.211962 53.404778a53.511587 53.511587 0 0 1 43.591649 22.283143l183.76584 256.609956a53.631748 53.631748 0 0 1-12.336504 74.606474 53.618397 53.618397 0 0 1-74.606474-12.336503l-183.765839-256.609956a53.631748 53.631748 0 0 1 12.336503-74.606475A53.111051 53.111051 0 0 1 826.211962 53.404778m0-53.404778a106.889662 106.889662 0 0 0-86.782764 169.052823l183.76584 256.609956a107.183388 107.183388 0 0 0 87.009734 44.592989 106.809555 106.809555 0 0 0 86.782763-169.052823L913.221696 44.592989A107.19674 107.19674 0 0 0 826.211962 0z" fill="#434E52" p-id="6465"></path><path d="M310.255055 997.254113c-30.160348 0-56.769279-11.215003-76.982987-32.430051-17.783791-18.691672-30.160348-44.913418-35.76785-75.861487L121.242196 487.545565H1141.52712l-76.302076 401.497118c-13.004063 66.755972-56.181826 108.144674-112.710783 108.144674zM846.465724 631.151012c-20.707702 0-43.885376 11.62889-43.885376 27.196383v169.680329c0 12.830498 18.771779 27.183032 43.885376 27.183032 12.777093 0 25.033489-3.765037 33.631658-10.333824 3.845144-2.937263 10.253717-8.985354 10.253718-16.849208V658.347395c0-12.830498-18.771779-27.196383-43.885376-27.196383z m-210.428175 0c-20.707702 0-43.885376 11.62889-43.885376 27.196383v169.680329c0 12.830498 18.771779 27.183032 43.885376 27.183032 12.763742 0 25.033489-3.778388 33.64501-10.347176 3.831793-2.923912 10.240366-8.972003 10.240366-16.835856V658.347395c0-12.830498-18.771779-27.196383-43.885376-27.196383z m-210.428175 0c-20.707702 0-43.885376 11.62889-43.885375 27.196383v169.680329c0 12.830498 18.771779 27.183032 43.885375 27.183032 12.763742 0 25.033489-3.778388 33.64501-10.347176 3.831793-2.923912 10.240366-8.972003 10.240366-16.835856V658.347395c0-12.830498-18.758428-27.196383-43.872024-27.196383z" fill="#FF6252" p-id="6466"></path><path d="M1109.270634 514.247954l-70.267336 369.828084c-9.412592 48.371377-38.918732 86.475686-86.475686 86.475686H310.255055c-47.583657 0-77.290064-35.554231-86.502388-86.475686l-70.213932-369.828084h955.731899M846.465724 881.913145c19.412637 0 37.076267-6.061442 49.85336-15.834517s20.734405-23.231078 20.734404-38.050904V658.347395c0-29.639652-31.74914-53.898772-70.587764-53.898772s-70.587765 24.25912-70.587765 53.898772v169.680329c0 29.639652 31.775843 53.885421 70.587765 53.885421m-210.428175 0c19.412637 0 37.049564-6.061442 49.85336-15.834517s20.734405-23.231078 20.734405-38.050904V658.347395c0-29.639652-31.74914-53.898772-70.587765-53.898772s-70.587765 24.25912-70.587765 53.898772v169.680329c0 29.639652 31.74914 53.885421 70.587765 53.885421m-210.428175 0c19.399285 0 37.049564-6.061442 49.85336-15.834517s20.734405-23.231078 20.734405-38.050904V658.347395c0-29.639652-31.775843-53.898772-70.587765-53.898772s-70.587765 24.25912-70.587764 53.898772v169.680329c0 29.639652 31.74914 53.885421 70.587764 53.885421m748.16088-421.069969H88.985711l12.016074 63.37812 70.213932 369.601114c6.555436 36.048225 21.361911 66.969591 42.723822 89.453003 25.367269 26.702389 58.678499 40.721143 96.315516 40.721142h642.259206a129.746907 129.746907 0 0 0 96.635945-42.123018c20.854566-22.403304 35.474123-52.683813 42.269881-87.557133v-0.240321l70.267336-369.828084 12.016075-63.37812z m-344.460815 201.696494c2.536727-1.829114 8.251038-4.686269 17.182987-4.686269s14.686314 2.857156 17.182987 4.672918v161.30913c-3.137531 2.296405-9.212324 4.672918-17.182987 4.672918-8.918598 0-14.686314-2.843804-17.182987-4.672918V662.53967z m-210.428175 0c2.536727-1.829114 8.251038-4.672918 17.182987-4.672918s14.686314 2.857156 17.182988 4.672918V823.768693c-3.204287 2.309757-9.27908 4.672918-17.182988 4.672918-8.918598 0-14.686314-2.843804-17.182987-4.672918V662.53967z m-210.428174 0c2.536727-1.829114 8.251038-4.672918 17.182987-4.672918s14.686314 2.857156 17.182987 4.686269V823.768693c-3.204287 2.309757-9.27908 4.672918-17.182987 4.672918-8.918598 0-14.686314-2.843804-17.182987-4.672918V662.53967z" fill="#434E52" p-id="6467"></path><path d="M152.751015 514.247954l70.267336 369.828084c9.425943 48.371377 38.918732 86.475686 86.475686 86.475686h35.527528c-47.570306 0-77.063094-38.11766-86.475686-86.475686l-70.294038-369.828084z" fill="#FF8080" p-id="6468"></path><path d="M1111.446879 514.247954l-70.267336 369.828084c-9.425943 48.371377-38.918732 86.475686-86.475686 86.475686h-35.54088c47.570306 0 77.063094-38.11766 86.475686-86.475686l70.267336-369.828084z" fill="#E54C4C" p-id="6469"></path><path d="M194.046259 540.950343C101.776155 540.950343 26.702389 481.016831 26.702389 407.331589V397.865593c0-44.539584 43.671757-80.774726 97.343558-80.774726h1013.676082c54.2192 0 98.331547 36.261844 98.331547 80.82813v9.626211c0 73.591783-75.514355 133.511944-168.331859 133.511944z" fill="#FCCE0B" p-id="6470"></path><path d="M1137.722029 343.739851c38.625005 0 71.629158 24.646305 71.629158 54.125742v9.626211c0 58.90547-64.512971 106.809555-141.62947 106.809555H194.046259C116.92976 514.247954 53.404778 466.290464 53.404778 407.331589V397.865593c0-29.452735 32.149676-54.072337 70.641169-54.072338h1013.676082m0-53.404777H124.045947c-30.280509 0-59.479571 9.586158-82.216655 26.996115C15.247064 337.678408 0 367.010982 0 397.865593v9.519401a137.063362 137.063362 0 0 0 17.944005 67.663853 164.046125 164.046125 0 0 0 44.592989 50.440813c35.874659 27.223085 82.590488 42.203125 131.509265 42.203125h873.675458c48.892074 0 95.68801-14.913284 131.776289-41.976155a164.700334 164.700334 0 0 0 45.006876-50.280598 136.048671 136.048671 0 0 0 18.251082-67.95758V397.865593c0-59.292654-56.075016-107.53052-125.033935-107.53052z" fill="#434E52" p-id="6471"></path><path d="M1209.017407 398.252777v9.626211c0 58.90547-64.526322 106.809555-141.642821 106.809555h-32.737129c77.116499 0 141.642821-47.864032 141.642821-106.809555v-9.626211c0-29.466086-33.017504-54.125742-71.629157-54.125742h32.737128c38.611654 0 71.629158 24.659656 71.629158 54.125742z" fill="#F4AF16" p-id="6472"></path><path d="M226.516364 514.2079h-32.737129c-77.116499 0-140.62813-47.970841-140.62813-106.903013v-9.532753c0-29.452735 32.136325-54.072337 70.641169-54.072337h32.737129c-38.491493 0-70.641169 24.619602-70.64117 54.072337v9.532753c-0.013351 58.932172 63.511632 106.903013 140.628131 106.903013z" fill="#FCE15B" p-id="6473"></path></svg>