<?xml version="1.0" standalone="no"?><!DOCTYPE svg PUBLIC "-//W3C//DTD SVG 1.1//EN" "http://www.w3.org/Graphics/SVG/1.1/DTD/svg11.dtd"><svg t="1616295375852" class="icon" viewBox="0 0 1024 1024" version="1.1" xmlns="http://www.w3.org/2000/svg" p-id="4182" width="128" height="128" xmlns:xlink="http://www.w3.org/1999/xlink"><defs><style type="text/css"></style></defs><path d="M660.297561 399.204441c-83.087675 0-148.273421 92.641638-148.273421 92.641638s-61.48976-92.641638-148.311421-92.641638c-84.44767 0-153.409401 69.651728-157.923383 153.983398-2.54199 47.641814 12.81595 83.901672 34.453866 116.741544 43.241831 65.607744 232.287093 223.563127 272.054937 223.563127 40.591841 0 227.95511-157.377385 271.480939-223.563127 21.683915-32.989871 36.999855-69.09573 34.447866-116.741544-4.515982-84.331671-73.477713-153.983399-157.929383-153.983398" fill="#FF5E8A" p-id="4183"></path><path d="M240.241202 669.927383c-21.639915-32.839872-36.997855-69.09973-34.453866-116.741544 3.395987-63.465752 43.301831-118.607537 98.833614-142.011445L97.823758 283.186894l-5.759978 58.94777c-2.183991 22.331913-1.683993 44.253827 1.483995 65.151745 6.477975 42.961832 23.901907 80.433686 51.773797 111.561564l-118.965535-13.135948 19.931922 55.593782c7.55997 21.085918 17.405932 40.717841 29.255886 58.349772 24.205905 36.025859 55.909782 62.417756 94.319631 78.641693l-113.359557 38.271851L98.641755 778.596959c34.807864 34.717864 109.203573 89.199652 216.237155 64.00375h0.002c20.995918-4.941981 42.439834-12.84395 63.737751-23.483909a326.918723 326.918723 0 0 0 8.909965-4.649982c-60.777763-49.325807-124.419514-109.841571-147.287424-144.539435zM948.472435 619.657579c11.851954-17.631931 21.697915-37.265854 29.255886-58.349772l19.931922-55.593782-118.965535 13.133948c27.869891-31.123878 45.293823-68.597732 51.773797-111.561564 3.165988-20.899918 3.667986-42.817833 1.483995-65.151745l-5.759978-58.94777-206.799192 127.9895c55.533783 23.407909 95.435627 78.545693 98.833614 142.011445 2.55399 47.643814-12.76195 83.751673-34.447866 116.741544-23.02791 35.013863-86.307663 95.543627-146.817426 144.799434 2.863989 1.535994 5.691978 3.021988 8.433967 4.391983 21.295917 10.639958 42.743833 18.539928 63.737751 23.483909h0.002c107.035582 25.197902 181.429291-29.285886 216.237155-64.00375l42.137836-42.027836-113.361558-38.271851c38.41385-16.225937 70.117726-42.619834 94.323632-78.643693z" fill="#BBDCE3" p-id="4184"></path><path d="M1018.338162 489.386088a26.303897 26.303897 0 0 0-23.569908-9.861961l-62.037757 6.849973c11.759954-23.04391 19.717923-48.157812 23.785907-75.141706 3.493986-23.05391 4.051984-47.165816 1.653993-71.65972l-5.759977-58.94777a26.329897 26.329897 0 0 0-14.535944-21.049918 26.333897 26.333897 0 0 0-25.5519 1.209995l-195.819235 121.191527a178.269304 178.269304 0 0 0-56.20978-9.121964c-65.373745 0-119.307534 46.501818-147.863423 77.305698-27.849891-30.979879-80.841684-77.305698-148.725419-77.305698a178.211304 178.211304 0 0 0-56.20178 9.121964l-195.815235-121.191527a26.351897 26.351897 0 0 0-40.089844 19.839923l-5.759977 58.94777c-2.395991 24.497904-1.839993 48.60781 1.651993 71.64172 4.069984 26.989895 12.033953 52.109796 23.791907 75.155706l-62.037757-6.849973a26.345897 26.345897 0 0 0-27.693892 35.079863l19.931922 55.593783c8.291968 23.12791 19.119925 44.713825 32.185874 64.153749 15.107941 22.487912 32.891872 41.671837 53.179793 57.411776l-58.781771 19.845922a26.349897 26.349897 0 0 0-10.18196 43.61983l42.137835 42.027836c31.783876 31.697876 93.291636 78.213694 180.473295 78.209694 18.937926 0 39.091847-2.193991 60.411764-7.213972 20.945918-4.929981 42.221835-12.541951 63.339753-22.595911 62.033758 49.237808 105.06159 74.18771 128.0395 74.18771 23.293909 0 66.297741-24.867903 127.9815-73.937711 20.943918 9.933961 42.043836 17.455932 62.823755 22.347912 21.327917 5.01998 41.467838 7.213972 60.415764 7.213972 87.171659-0.008 148.689419-46.513818 180.465295-78.213694l42.137835-42.027836a26.345897 26.345897 0 0 0-10.17396-43.61983l-58.783771-19.845922c20.287921-15.739939 38.069851-34.921864 53.181793-57.409776 13.065949-19.441924 23.897907-41.02584 32.189874-64.155749l19.929922-55.593783a26.313897 26.313897 0 0 0-4.115984-25.211902z m-709.497228 327.566721c-94.62963 22.281913-160.659372-26.157898-191.595252-57.011778l-12.037953-12.009953 73.083715-24.673903a26.343897 26.343897 0 0 0 1.821992-49.231808c-33.629869-14.203945-61.45376-37.439854-82.701677-69.06773-10.641958-15.831938-19.497924-33.511869-26.321897-52.545795l-5.693977-15.881938 77.035699 8.507967a26.343897 26.343897 0 1 0 22.521912-43.761829c-24.403905-27.253894-39.661845-60.195765-45.351823-97.933618-2.841989-18.743927-3.281987-38.47585-1.311995-58.63977l1.645994-16.841935 133.735477 82.767677c-0.537998 0.413998-1.045996 0.863997-1.579994 1.285995a198.563224 198.563224 0 0 0-7.781969 6.463975 192.879247 192.879247 0 0 0-3.741986 3.395986c-1.161995 1.077996-2.329991 2.149992-3.461986 3.255988-0.271999 0.265999-0.555998 0.511998-0.827997 0.777997-0.955996 0.943996-1.859993 1.925992-2.795989 2.885988-1.005996 1.037996-2.031992 2.055992-3.015988 3.113988a192.803247 192.803247 0 0 0-12.499951 14.883942c-0.098 0.129999-0.189999 0.263999-0.287999 0.391999a193.819243 193.819243 0 0 0-5.593978 7.837969c-0.1 0.147999-0.193999 0.297999-0.295999 0.441998a196.505232 196.505232 0 0 0-5.25998 8.261968l-0.063999 0.108a190.489256 190.489256 0 0 0-20.195922 46.875816l-0.051999 0.192a188.615263 188.615263 0 0 0-2.67599 10.885957 194.283241 194.283241 0 0 0-1.503994 7.75397c-0.141999 0.827997-0.291999 1.651994-0.423998 2.48199a191.839251 191.839251 0 0 0-1.023996 7.453971c-0.1 0.843997-0.223999 1.683993-0.313999 2.52999a192.575248 192.575248 0 0 0-0.805997 9.877962c-3.263987 61.203761 20.55992 105.00759 38.765849 132.641481 0.084 0.126 0.179999 0.259999 0.263998 0.387999 0.653997 0.985996 1.329995 1.983992 2.035993 2.997988 0.349999 0.505998 0.721997 1.019996 1.081995 1.529994 0.453998 0.633998 0.905996 1.271995 1.377995 1.919993a198.825223 198.825223 0 0 0 2.54799 3.427986c0.587998 0.777997 1.183995 1.557994 1.793993 2.347991 0.205999 0.265999 0.417998 0.533998 0.627998 0.799997 13.769946 17.645931 33.19587 38.177851 54.455787 58.77977l2.749989 2.66199 1.479994 1.419995c1.179995 1.131996 2.365991 2.263991 3.555986 3.397986l0.943997 0.895997c1.411994 1.337995 2.831989 2.67999 4.257983 4.019984l0.455998 0.425998a1334.240788 1334.240788 0 0 0 25.251902 23.08591l0.697997 0.621998a1534.400006 1534.400006 0 0 0 6.199976 5.485978c0.699997 0.615998 1.399995 1.233995 2.099991 1.843993 1.197995 1.051996 2.391991 2.091992 3.583986 3.129988l0.555998 0.483998c1.459994 1.269995 2.911989 2.52999 4.357983 3.777985-10.003961 3.735985-19.953922 6.771974-29.769883 9.081965z m95.361627-22.877911c-0.024-0.022-0.044-0.044-0.072-0.064a1469.194261 1469.194261 0 0 1-10.757958-8.823965c-0.621998-0.515998-1.237995-1.023996-1.861992-1.545994-1.135996-0.945996-2.267991-1.891993-3.397987-2.837989-0.931996-0.779997-1.865993-1.559994-2.791989-2.341991l-1.649994-1.391994c-48.65381-41.089839-91.529642-82.987676-113.181558-110.365569l-0.091999-0.118a200.709216 200.709216 0 0 1-4.271984-5.599978c-0.437998-0.595998-0.847997-1.175995-1.259995-1.751993-0.247999-0.345999-0.505998-0.699997-0.745997-1.039996a127.123503 127.123503 0 0 1-1.877992-2.761989v0.002c-5.20798-7.903969-9.663962-15.555939-13.473948-23.08791a173.231323 173.231323 0 0 1-7.68197-17.435932c-7.327971-19.591923-10.12796-38.957848-8.989965-60.309764 0.002-0.064 0.01-0.129999 0.014-0.192 0.108-1.935992 0.263999-3.861985 0.449999-5.777977 0.052-0.539998 0.116-1.079996 0.173999-1.619994 0.179999-1.635994 0.383999-3.267987 0.621997-4.883981 0.05-0.341999 0.094-0.685997 0.148-1.027996 10.013961-64.831747 65.847743-115.539549 130.205491-115.539548 71.351721 0 125.849508 80.101687 126.361507 80.863684a26.353897 26.353897 0 0 0 21.559915 11.753954c8.693966 0.201999 16.891934-4.039984 21.913915-11.123957 0.579998-0.815997 58.573771-81.495682 126.753505-81.495681 64.369749 0 120.21553 50.727802 130.221491 115.573548 0.048 0.307999 0.086 0.615998 0.132 0.923997 0.243999 1.659994 0.453998 3.329987 0.637997 5.00798 0.056 0.507998 0.114 1.019996 0.163999 1.529994 0.195999 1.991992 0.359999 3.991984 0.467999 6.007977 0.475998 8.907965 0.271999 17.473932-0.665998 25.859899-2.811989 25.159902-12.203952 48.69781-29.487885 74.989707-0.375999 0.571998-0.787997 1.167995-1.189995 1.759993-0.209999 0.309999-0.407998 0.607998-0.627998 0.923996-0.491998 0.705997-1.017996 1.437994-1.549993 2.171992-0.155999 0.215999-0.301999 0.425998-0.461999 0.645997a199.76322 199.76322 0 0 1-2.137991 2.865989c-21.075918 27.743892-65.689743 71.77372-116.295546 114.561552-0.044 0.04-0.092 0.08-0.138 0.116-1.359995 1.151996-2.729989 2.297991-4.097984 3.445987l-1.973992 1.651993c-1.085996 0.905996-2.155992 1.791993-3.227987 2.68399-1.201995 0.997996-2.401991 1.997992-3.609986 2.989988l-0.599998 0.491998a1232.695185 1232.695185 0 0 1-5.525978 4.523982c-0.014 0.01-0.026 0.026-0.042 0.036-59.789766 48.71381-96.937621 70.111726-107.933578 72.673716-10.983957-2.65399-48.167812-24.191906-108.151578-72.917715z m548.723857-241.663056c-6.823973 19.035926-15.679939 36.715857-26.321898 52.545795v0.002c-21.249917 31.625876-49.075808 54.861786-82.703676 69.06573a26.343897 26.343897 0 1 0 1.819992 49.231808l73.083715 24.673903-12.039953 12.009953c-30.929879 30.853879-96.953621 79.30569-191.591252 57.011778-9.665962-2.273991-19.459924-5.253979-29.313885-8.913965a1227.981203 1227.981203 0 0 0 3.847985-3.349987l1.577994-1.379995c0.889997-0.779997 1.781993-1.559994 2.673989-2.347991l2.963989-2.61599c0.479998-0.425998 0.961996-0.847997 1.441994-1.277995a1329.442807 1329.442807 0 0 0 34.781864-31.957875l0.597998-0.569997c1.353995-1.293995 2.699989-2.58799 4.041984-3.877985l0.973996-0.937997c1.175995-1.135996 2.339991-2.267991 3.501987-3.403986l1.361994-1.327995c0.637998-0.623998 1.267995-1.247995 1.899993-1.869993a924.030391 924.030391 0 0 0 6.423975-6.377975l0.016-0.016c1.337995-1.341995 2.66399-2.68199 3.981984-4.017984l0.056-0.056c15.42394-15.663939 29.277886-30.931879 39.877844-44.555826 0.271999-0.347999 0.545998-0.697997 0.811997-1.043996a311.764782 311.764782 0 0 0 2.929988-3.879985 174.371319 174.371319 0 0 0 2.857989-3.949984c0.321999-0.455998 0.649997-0.915996 0.963997-1.367995 0.813997-1.171995 1.601994-2.331991 2.34799-3.463986a345.334651 345.334651 0 0 0 7.463971-11.843954c16.187937-26.945895 31.721876-62.431756 31.589877-109.667572a219.331143 219.331143 0 0 0-0.315999-11.113956 190.011258 190.011258 0 0 0-0.803997-9.859962c-0.092-0.863997-0.215999-1.717993-0.317999-2.57999a197.995227 197.995227 0 0 0-1.015996-7.407971c-0.133999-0.835997-0.281999-1.661994-0.425998-2.49599a189.725259 189.725259 0 0 0-1.501994-7.74597c-0.126-0.583998-0.251999-1.169995-0.383999-1.753993a188.945262 188.945262 0 0 0-2.293991-9.139964l-0.047999-0.18a190.493256 190.493256 0 0 0-20.195922-46.877816l-0.063999-0.106a191.331253 191.331253 0 0 0-5.24798-8.249968c-0.106-0.155999-0.205999-0.313999-0.307999-0.465998a193.401245 193.401245 0 0 0-5.555978-7.79197c-0.11-0.147999-0.213999-0.297999-0.323999-0.445998a194.339241 194.339241 0 0 0-6.269975-7.869969l-0.138-0.155999a187.881266 187.881266 0 0 0-6.067976-6.831974c-1.015996-1.095996-2.077992-2.149992-3.121988-3.221987-0.905996-0.929996-1.783993-1.883993-2.711989-2.797989-0.259999-0.257999-0.533998-0.495998-0.797997-0.749997-1.161995-1.131996-2.355991-2.231991-3.545986-3.333987-1.209995-1.119996-2.421991-2.233991-3.653986-3.319987a183.261284 183.261284 0 0 0-3.351987-2.863989 187.523267 187.523267 0 0 0-4.421982-3.593986c-0.547998-0.431998-1.067996-0.893997-1.619994-1.317995l133.737477-82.767677 1.645994 16.843935c1.969992 20.161921 1.529994 39.889844-1.313995 58.65777-5.685978 37.715853-20.943918 70.659724-45.349823 97.913618a26.339897 26.339897 0 0 0-3.795985 29.629884c4.99798 9.709962 15.45994 15.35594 26.317897 14.131945l77.035699-8.507967-5.691977 15.903938z" fill="" p-id="4185"></path><path d="M382.586646 671.903375h-0.026c-14.551943 0-26.333897 11.797954-26.333898 26.347897 0 14.549943 11.809954 26.347897 26.359898 26.347898 14.551943 0 26.347897-11.797954 26.347897-26.347898 0-14.547943-11.795954-26.347897-26.347897-26.347897zM335.31483 610.951613c-14.433944-21.901914-16.799934-34.747864-16.011937-49.525806 1.053996-19.715923 12.83195-37.905852 29.995883-46.331819 6.301975-3.093988 12.91395-4.663982 19.649923-4.663982 14.551943 0 26.347897-11.797954 26.347897-26.347897 0-14.549943-11.795954-26.347897-26.347897-26.347897-14.851942 0-29.273886 3.379987-42.869833 10.051961-34.549865 16.961934-57.307776 51.761798-59.397768 90.825645-1.541994 28.879887 5.595978 52.441795 24.627904 81.329682 2.703989 4.101984 6.875973 9.473963 12.409952 15.963938a26.287897 26.287897 0 0 0 20.065921 9.257964c6.041976 0 12.117953-2.067992 17.075934-6.293976 11.075957-9.439963 12.401952-26.071898 2.963988-37.145855-5.777977-6.775974-7.975969-9.957961-8.509967-10.771958zM359.788735 305.298807c41.093839 18.113929 95.153628 28.08989 152.217405 28.089891 32.241874 0 63.287753-3.121988 92.26764-9.273964 14.233944-3.021988 23.323909-17.011934 20.29992-31.245878-3.023988-14.233944-17.003934-23.325909-31.245878-20.299921-25.387901 5.393979-52.749794 8.125968-81.319682 8.125969-104.537592 0-173.895321-37.267854-173.895321-61.917759s69.357729-61.917758 173.895321-61.917758c81.061683 0 140.567451 22.047914 163.579361 43.899829 10.551959 10.021961 27.233894 9.587963 37.249854-0.963996 10.019961-10.551959 9.587963-27.229894-0.963996-37.249855-37.927852-36.011859-114.509553-58.381772-199.863219-58.381772-57.065777 0-111.123566 9.975961-152.217405 28.08989-47.957813 21.137917-74.371709 51.867797-74.37171 86.523662s26.409897 65.381745 74.36771 86.521662z" fill="" p-id="4186"></path><path d="M691.987437 258.166992a24.767903 24.767903 0 0 0-3.267987-4.007985 25.345901 25.345901 0 0 0-4.003985-3.267987 24.435905 24.435905 0 0 0-4.557982-2.423991 26.805895 26.805895 0 0 0-4.923981-1.527994 25.911899 25.911899 0 0 0-10.275959 0 27.959891 27.959891 0 0 0-4.953981 1.527994c-1.583994 0.657997-3.109988 1.451994-4.531982 2.423991a25.087902 25.087902 0 0 0-4.007985 3.267987 25.197902 25.197902 0 0 0-3.267987 4.007985 24.931903 24.931903 0 0 0-2.423991 4.531982 28.029891 28.029891 0 0 0-1.527994 4.927981 26.403897 26.403897 0 0 0-0.497998 5.163979c0 1.709993 0.157999 3.451987 0.497998 5.13798 0.341999 1.685993 0.869997 3.345987 1.527994 4.927981 0.657997 1.603994 1.477994 3.131988 2.423991 4.555982a25.357901 25.357901 0 0 0 3.267987 4.007985 24.957903 24.957903 0 0 0 4.007985 3.263987c1.421994 0.947996 2.947988 1.765993 4.531982 2.42399 1.607994 0.657997 3.267987 1.159995 4.953981 1.501995 1.685993 0.341999 3.425987 0.525998 5.137979 0.525997 1.709993 0 3.451987-0.183999 5.13798-0.525997a26.529896 26.529896 0 0 0 4.923981-1.501995 25.935899 25.935899 0 0 0 4.557982-2.42399 25.013902 25.013902 0 0 0 4.003985-3.263987 25.047902 25.047902 0 0 0 3.267987-4.007985c0.947996-1.421994 1.765993-2.949988 2.42399-4.555982 0.657997-1.583994 1.185995-3.239987 1.501995-4.927981 0.341999-1.687993 0.525998-3.427987 0.525998-5.13798 0-1.711993-0.183999-3.453987-0.525998-5.163979-0.315999-1.659994-0.843997-3.319987-1.501995-4.927981a26.799895 26.799895 0 0 0-2.42399-4.531982z" fill="" p-id="4187"></path></svg>