<?xml version="1.0" standalone="no"?><!DOCTYPE svg PUBLIC "-//W3C//DTD SVG 1.1//EN" "http://www.w3.org/Graphics/SVG/1.1/DTD/svg11.dtd"><svg t="1618018056497" class="icon" viewBox="0 0 1024 1024" version="1.1" xmlns="http://www.w3.org/2000/svg" p-id="2831" width="128" height="128" xmlns:xlink="http://www.w3.org/1999/xlink"><defs><style type="text/css"></style></defs><path d="M256.68 138.92c-49.91 0-90.06 40.15-90.06 90.06V799.4c0 49.91 40.15 90.06 90.06 90.06h600.44V138.92H256.68z" fill="#FFC600" p-id="2832"></path><path d="M316.72 274.02c-8.26 0-15.01-6.75-15.01-15.01v-60.04c0-8.26 6.75-15.01 15.01-15.01s15.01 6.75 15.01 15.01v60.04c0 8.25-6.75 15.01-15.01 15.01zM316.72 664.3c-8.26 0-15.01-6.75-15.01-15.01V379.1c0-8.26 6.75-15.01 15.01-15.01s15.01 6.75 15.01 15.01v270.19c0 8.26-6.75 15.01-15.01 15.01z" fill="#FFEEB2" p-id="2833"></path><path d="M256.68 889.46h600.44v-60.04H256.68c-49.91 0-90.06-40.15-90.06-90.06v60.04c-0.01 49.91 40.15 90.06 90.06 90.06z" fill="#FFA100" p-id="2834"></path><path d="M171.87 769.38c12.38 34.9 45.78 60.04 84.81 60.04h600.43V709.33H256.68c-39.03 0-72.43 25.15-84.81 60.05z" fill="#949BA6" p-id="2835"></path><path d="M171.87 769.38c7.88 22.14 24.02 40.53 45.03 50.66-3.38-6.38-5.25-13.13-5.25-20.64 0-24.77 20.26-45.03 45.03-45.03h600.43v-45.03H256.68c-39.03-0.01-72.43 25.14-84.81 60.04z" fill="#717582" p-id="2836"></path><path d="M406.78 769.38v180.13l75.06-60.05 75.05 60.05V769.38z" fill="#FFC600" p-id="2837"></path><path d="M406.78 844.43v105.08l75.06-60.05 75.05 60.05V844.43z" fill="#FFA100" p-id="2838"></path><path d="M316.72 319.05m-15.01 0a15.01 15.01 0 1 0 30.02 0 15.01 15.01 0 1 0-30.02 0Z" fill="#FFEEB2" p-id="2839"></path><path d="M406.78 304.04H707c8.26 0 15.01-6.75 15.01-15.01s-6.75-15.01-15.01-15.01H406.78c-8.26 0-15.01 6.75-15.01 15.01s6.76 15.01 15.01 15.01zM661.97 349.07c0-8.26-6.75-15.01-15.01-15.01H466.83c-8.26 0-15.01 6.75-15.01 15.01s6.75 15.01 15.01 15.01h180.13c8.25 0 15.01-6.75 15.01-15.01zM406.78 574.24H571.9c8.26 0 15.01-6.75 15.01-15.01s-6.75-15.01-15.01-15.01H406.78c-8.26 0-15.01 6.75-15.01 15.01s6.76 15.01 15.01 15.01zM707 544.21h-75.05c-8.26 0-15.01 6.75-15.01 15.01s6.75 15.01 15.01 15.01H707c8.26 0 15.01-6.75 15.01-15.01s-6.75-15.01-15.01-15.01z" fill="#090418" p-id="2840"></path><path d="M707 769.38m-15.01 0a15.01 15.01 0 1 0 30.02 0 15.01 15.01 0 1 0-30.02 0Z" fill="#090418" p-id="2841"></path><path d="M917.15 709.33m-15.01 0a15.01 15.01 0 1 0 30.02 0 15.01 15.01 0 1 0-30.02 0Z" fill="#090418" p-id="2842"></path><path d="M917.15 649.29m-15.01 0a15.01 15.01 0 1 0 30.02 0 15.01 15.01 0 1 0-30.02 0Z" fill="#090418" p-id="2843"></path><path d="M917.15 589.25m-15.01 0a15.01 15.01 0 1 0 30.02 0 15.01 15.01 0 1 0-30.02 0Z" fill="#090418" p-id="2844"></path><path d="M256.68 93.89c8.26 0 15.01-6.75 15.01-15.01s-6.75-15.01-15.01-15.01c-91.19 0-165.12 73.93-165.12 165.12V379.1c0 8.26 6.75 15.01 15.01 15.01s15.01-6.75 15.01-15.01V228.99c0-74.68 60.42-135.1 135.1-135.1z" fill="#090418" p-id="2845"></path><path d="M857.11 123.91H256.68c-57.79 0-105.08 47.28-105.08 105.08V799.4c0 57.79 47.28 105.08 105.08 105.08h135.1v45.03c0 5.63 3.38 10.88 8.63 13.51 5.25 2.63 11.26 1.88 15.76-1.88l65.67-52.54 65.67 52.54c2.63 2.25 6 3.38 9.38 3.38 2.25 0 4.5-0.38 6.38-1.5 5.25-2.63 8.63-7.88 8.63-13.51v-45.03h285.21c8.26 0 15.01-6.75 15.01-15.01V138.92c0-8.25-6.76-15.01-15.01-15.01zM181.62 725.85V228.99c0-36.4 25.89-66.42 60.04-73.55v540.01c-23.26 3.38-44.28 14.26-60.04 30.4z m210.15 148.6h-135.1c-36.4 0-66.8-25.89-73.55-60.04 19.14 18.76 45.03 30.02 73.55 30.02h135.1v30.02z m150.11 43.91l-50.66-40.53c-5.63-4.5-13.13-4.5-18.76 0l-50.66 40.53V784.39h120.09v133.97z m300.22-43.91H571.9v-30.02h270.2v30.02z m0-60.04H571.9v-30.02h75.05c8.26 0 15.01-6.75 15.01-15.01s-6.75-15.01-15.01-15.01H256.68c-8.26 0-15.01 6.75-15.01 15.01s6.75 15.01 15.01 15.01h135.1v30.02h-135.1c-30.77 0-57.04-18.39-68.67-45.03 11.63-26.64 37.9-45.03 68.67-45.03H842.1v90.06z m0-120.09H271.69V153.93H842.1v540.39z" fill="#090418" p-id="2846"></path><path d="M316.72 78.88m-15.01 0a15.01 15.01 0 1 0 30.02 0 15.01 15.01 0 1 0-30.02 0Z" fill="#090418" p-id="2847"></path><path d="M376.76 78.88m-15.01 0a15.01 15.01 0 1 0 30.02 0 15.01 15.01 0 1 0-30.02 0Z" fill="#090418" p-id="2848"></path></svg>