<?xml version="1.0" standalone="no"?><!DOCTYPE svg PUBLIC "-//W3C//DTD SVG 1.1//EN" "http://www.w3.org/Graphics/SVG/1.1/DTD/svg11.dtd"><svg t="1618316419125" class="icon" viewBox="0 0 1024 1024" version="1.1" xmlns="http://www.w3.org/2000/svg" p-id="3212" width="128" height="128" xmlns:xlink="http://www.w3.org/1999/xlink"><defs><style type="text/css"></style></defs><path d="M512 512m-512 0a512 512 0 1 0 1024 0 512 512 0 1 0-1024 0Z" fill="#3DB39E" p-id="3213"></path><path d="M712 376V244.8H320V376c0 107.2 70.4 197.6 164 213.6 9.6 2.4 18.4 3.2 18.4 21.6 0 16.8-11.2 17.6-18.4 20C390.4 646.4 320 736.8 320 844v130.4h392v-130.4c0-107.2-70.4-197.6-164-213.6-8-1.6-16 2.4-16-21.6 0-16 7.2-19.2 16-19.2C641.6 573.6 712 483.2 712 376z" fill="#EAEAEA" p-id="3214"></path><path d="M565.6 766.4c-40-35.2-36-151.2-38.4-152.8 8-21.6 24.8-28 72-40.8 57.6-16 86.4-84.8 86.4-84.8H344.8c4 36 105.6 96.8 129.6 100.8 13.6 2.4 22.4 14.4 27.2 25.6 0 24-15.2 140.8-36.8 152.8-22.4 12-140.8 49.6-140.8 49.6l-1.6 116h384v-116l-140.8-50.4z" fill="#FBD000" p-id="3215"></path><path d="M712 982.4H320c-4.8 0-8-3.2-8-8v-130.4c0-111.2 71.2-204 169.6-221.6 0.8 0 1.6-0.8 2.4-0.8 6.4-1.6 9.6-2.4 9.6-11.2 0-11.2-2.4-12-11.2-13.6C384 580 312 487.2 312 376V244.8c0-4.8 3.2-8 8-8h392c4.8 0 8 3.2 8 8V376c0 111.2-72 204.8-170.4 221.6-5.6 0.8-9.6 0.8-9.6 12 0 10.4 1.6 12.8 1.6 12.8h3.2c1.6 0 3.2 0 4.8 0.8C648 639.2 720 732.8 720 844v130.4c0 4.8-3.2 8-8 8z m-384-16h376v-122.4c0-103.2-66.4-189.6-156.8-205.6H544c-12-0.8-19.2-6.4-19.2-28.8 0-16.8 8-26.4 23.2-27.2C637.6 565.6 704 479.2 704 376V252.8H328V376c0 103.2 66.4 189.6 156.8 205.6h0.8c9.6 2.4 24 4.8 24 29.6 0 20.8-14.4 24.8-21.6 26.4-0.8 0-1.6 0.8-2.4 0.8h-0.8C394.4 654.4 328 740.8 328 844v122.4z" fill="#663210" p-id="3216"></path><path d="M752 256c0 17.6-14.4 32-32 32H312c-17.6 0-32-14.4-32-32v-20c0-17.6 14.4-32 32-32h408c17.6 0 32 14.4 32 32V256z" fill="#AD5114" p-id="3217"></path><path d="M720 256H312c-16.8 0-29.6-8-32-24v23.2c0 17.6 14.4 32 32 32h408c17.6 0 32-14.4 32-32v-20-3.2c-2.4 16-15.2 24-32 24z" fill="#993F0D" p-id="3218"></path><path d="M752 964c0-17.6-14.4-32-32-32H312c-17.6 0-32 14.4-32 32v20c0 17.6 14.4 32 32 32h408c17.6 0 32-14.4 32-32v-20z" fill="#AD5114" p-id="3219"></path><path d="M720 992H312c-16.8 0-29.6-7.2-32-23.2v23.2c0 17.6 14.4 32 32 32h408c17.6 0 32-14.4 32-32v-20-3.2c-2.4 16-15.2 23.2-32 23.2z" fill="#993F0D" p-id="3220"></path><path d="M720 296H312c-22.4 0-40-17.6-40-40v-24c0-22.4 17.6-40 40-40h408c22.4 0 40 17.6 40 40v24c0 22.4-17.6 40-40 40zM312 208c-13.6 0-24 10.4-24 24v24c0 13.6 10.4 24 24 24h408c13.6 0 24-10.4 24-24v-24c0-13.6-10.4-24-24-24H312zM720 1024H312c-22.4 0-40-17.6-40-40v-16c0-22.4 17.6-40 40-40h408c22.4 0 40 17.6 40 40v16c0 22.4-17.6 40-40 40z m-408-80c-13.6 0-24 10.4-24 24v16c0 13.6 10.4 24 24 24h408c13.6 0 24-10.4 24-24v-16c0-13.6-10.4-24-24-24H312z" fill="#663210" p-id="3221"></path><path d="M588.8 532c-2.4 0-5.6-1.6-7.2-4-2.4-4-0.8-8.8 2.4-11.2 70.4-42.4 76-181.6 76-182.4 0-4.8 4-8 8-8 4.8 0 8 4 8 8 0 6.4-6.4 148.8-84 196 0 1.6-1.6 1.6-3.2 1.6zM671.2 864c-4.8 0-8.8-3.2-8.8-8 0-124-92.8-171.2-96-173.6-4-2.4-5.6-6.4-3.2-10.4 2.4-4 7.2-5.6 11.2-3.2 4.8 2.4 105.6 53.6 105.6 187.2 0 4.8-4 8-8.8 8zM458.4 548c-0.8 0-2.4 0-3.2-0.8-80-33.6-104.8-144.8-106.4-149.6-0.8-4 1.6-8.8 6.4-9.6 4-0.8 8.8 1.6 9.6 6.4 0 0.8 24 108 96.8 138.4 4 1.6 6.4 6.4 4 10.4-0.8 3.2-4 4.8-7.2 4.8z" fill="#FFFFFF" p-id="3222"></path><path d="M698.4 240h-344c-4.8 0-8-3.2-8-8s3.2-8 8-8h344c4.8 0 8 3.2 8 8s-4 8-8 8zM708.8 976H522.4c-4.8 0-8-3.2-8-8s3.2-8 8-8h186.4c4.8 0 8 3.2 8 8s-3.2 8-8 8zM458.4 976H384c-4.8 0-8-3.2-8-8s3.2-8 8-8h74.4c4.8 0 8 3.2 8 8s-4 8-8 8zM192 462.4c-17.6 0-32-14.4-32-32s14.4-32 32-32 32 14.4 32 32-14.4 32-32 32z m0-49.6c-9.6 0-16.8 8-16.8 16.8 0 9.6 8 16.8 16.8 16.8 9.6 0 16.8-8 16.8-16.8s-7.2-16.8-16.8-16.8zM840 567.2c-17.6 0-32-14.4-32-32s14.4-32 32-32 32 14.4 32 32c0 18.4-14.4 32-32 32z m0-48c-9.6 0-16.8 7.2-16.8 16.8 0 9.6 7.2 16.8 16.8 16.8 9.6 0 16.8-7.2 16.8-16.8 0-9.6-7.2-16.8-16.8-16.8zM204 674.4c0-3.2-3.2-6.4-8-7.2l-15.2-2.4c-4-0.8-8.8-4.8-8.8-8.8l-2.4-15.2c-0.8-4-4-8-7.2-8s-6.4 3.2-7.2 8l-2.4 15.2c-0.8 4-4.8 8.8-8.8 8.8l-15.2 2.4c-4 0.8-8 4-8 7.2s3.2 6.4 8 7.2l15.2 2.4c4 0.8 8.8 4.8 8.8 8.8l2.4 15.2c0.8 4 4 8 7.2 8s6.4-3.2 6.4-8l2.4-16.8c0.8-4 4.8-8 8.8-8.8l14.4-0.8c6.4-0.8 9.6-4 9.6-7.2zM881.6 328c0-3.2-3.2-6.4-8-7.2l-15.2-2.4c-4-0.8-8.8-4.8-8.8-8.8l-2.4-15.2c-0.8-4-4-8-7.2-8s-6.4 3.2-7.2 8l-2.4 15.2c-0.8 4-4.8 8.8-8.8 8.8l-15.2 2.4c-4 0.8-8 4-8 7.2s3.2 6.4 8 7.2l15.2 2.4c4 0.8 8.8 4.8 8.8 8.8l2.4 15.2c0.8 4 4 8 7.2 8s6.4-3.2 6.4-8l2.4-16.8c0.8-4 4.8-8 8.8-8.8l14.4-0.8c5.6-1.6 9.6-4 9.6-7.2zM457.6 101.6c0-3.2-3.2-6.4-8-7.2l-15.2-2.4c-4-0.8-8.8-4.8-8.8-8.8l-2.4-15.2c-0.8-4-4-8-7.2-8s-6.4 3.2-7.2 8l-2.4 15.2c-0.8 4-4.8 8.8-8.8 8.8l-15.2 2.4c-4 0.8-8 4-8 7.2s3.2 6.4 8 7.2l15.2 2.4c4 0.8 8.8 4.8 8.8 8.8l2.4 15.2c0.8 4 4 8 7.2 8s6.4-3.2 6.4-8l2.4-16.8c0.8-4 4.8-8 8.8-8.8l14.4-0.8c5.6-1.6 9.6-4 9.6-7.2zM865.6 744c0-3.2-3.2-6.4-8-7.2l-15.2-2.4c-4-0.8-8.8-4.8-8.8-8.8l-2.4-15.2c-0.8-4-4-8-7.2-8s-6.4 3.2-7.2 8l-2.4 15.2c-0.8 4-4.8 8.8-8.8 8.8l-15.2 2.4c-4 0.8-8 4-8 7.2s3.2 6.4 8 7.2l15.2 2.4c4 0.8 8.8 4.8 8.8 8.8l2.4 15.2c0.8 4 4 8 7.2 8s6.4-3.2 6.4-8l2.4-16.8c0.8-4 4.8-8 8.8-8.8l14.4-0.8c5.6-1.6 9.6-4 9.6-7.2z" fill="#FFFFFF" opacity=".5" p-id="3223"></path><path d="M805.6 1024H224c-4.8 0-8-3.2-8-8s3.2-8 8-8h581.6c4.8 0 8 3.2 8 8s-4 8-8 8z" fill="#663210" p-id="3224"></path></svg>