<?xml version="1.0" standalone="no"?><!DOCTYPE svg PUBLIC "-//W3C//DTD SVG 1.1//EN" "http://www.w3.org/Graphics/SVG/1.1/DTD/svg11.dtd"><svg t="1618018859458" class="icon" viewBox="0 0 1327 1024" version="1.1" xmlns="http://www.w3.org/2000/svg" p-id="3682" width="165.875" height="128" xmlns:xlink="http://www.w3.org/1999/xlink"><defs><style type="text/css"></style></defs><path d="M1321.301679 862.739988c-3.699802-115.643882 12.133873-231.757496-1.081968-347.506936-0.052779-68.776205-0.052779-120.093144-0.052779-120.093145l-96.200129-18.034555c-80.540625-15.29533-159.708999-25.851113-240.492407-45.067916l-74.217711-13.923078L21.499492 151.712993c-28.648395 136.211825-28.648395 283.992789 0 414.325043 0 66.237539 215.454089 297.18224 364.412022 408.508806 24.827202 18.557067 47.807142 33.789062 67.646736 44.455681 246.530315 18.377618 406.439873-15.949788 648.325643-74.576608 75.563573-22.241035 219.417786-81.685928 219.417786-81.685927z" fill="#5C3535" p-id="3683"></path><path d="M0.488205 404.154546V269.267471s184.599535 172.428717 320.927474 298.612549l56.19899 52.018899c37.467752 42.756199 79.690885 100.813007 121.914017 106.090898 279.728252 15.833675 554.178613-84.446265 823.351083-163.614638 0 52.778916 15.833675 126.669397-10.555784 147.780964-242.783012 158.336747-559.456505 167.045268-839.184757 156.489484-31.667349 0-36.945241-35.097979-68.976765-63.25553A3460.729327 3460.729327 0 0 1 328.29805 735.537523c-100.095213-92.151987-195.878389-190.505496-286.198948-288.526498-13.105005-13.896688-20.578499-21.671023-41.610897-42.856479z" fill="#FFE9A6" p-id="3684"></path><path d="M1101.883893 944.425915c75.563573-22.241035 219.417786-81.685928 219.417786-81.685927-3.699802-115.643882 12.133873-231.757496-1.081968-347.506936-0.052779-68.776205-0.052779-120.093144-0.052779-120.093145l-96.200129-18.034555c-67.245616-12.772498-133.551768-22.30437-200.628492-36.264393-264.728485 25.00665-520.49511 129.424457-520.495109 237.621233 0 0-98.580458 126.590229-49.29023 440.535053 246.535592 18.382896 406.445151-15.949788 648.330921-74.57133z" opacity=".11" p-id="3685"></path><path d="M502.84848 578.46747c-61.376601-31.931244-108.877625-79.432268-167.335552-123.228212A1964.357347 1964.357347 0 0 1 258.577102 388.188924C183.293257 319.196326 112.474508 244.91528 42.093825 170.24367a2127.993097 2127.993097 0 0 0-20.594333-18.530677s31.487901-5.969295 81.173972-12.202485c148.794319-4.644545 286.019499-57.42346 429.018693-86.103523l55.307025-10.661341C663.143324 29.302854 745.066757 0 808.83952 0c137.22518 0 455.988719 272.085866 508.767635 398.755263-232.227228 89.724156-480.288132 147.780964-727.520406 168.354185-53.575877 6.111798-87.23827 11.358023-87.238269 11.358022z" fill="#8A5050" p-id="3686"></path><path d="M1035.45635 106.365349c197.799542 274.898982-171.008964 244.028594-398.702484 276.556239C378.174125 419.861551 63.041776 145.010071 62.952052 144.93618c-26.10973 3.868695-41.45256 6.776813-41.45256 6.776813S29.004653 158.336747 42.093825 170.238392C112.474508 244.91528 183.287979 319.196326 258.58238 388.188924a1959.791971 1959.791971 0 0 0 76.930548 67.050334c58.457927 43.795944 105.958951 91.296968 167.335552 123.228212 0 0 33.662392-5.246224 87.227713-11.352744 247.237552-20.573221 495.298455-78.630028 727.525684-168.354185-31.377065-75.315513-156.779769-202.021855-282.145527-292.395192z" fill="#9E5C5C" p-id="3687"></path><path d="M377.614669 672.683113c37.467752 42.750922 79.690885 100.807729 121.914017 106.08562 279.728252 15.833675 554.178613-84.446265 823.351083-163.614638 0 19.253748 2.100601 41.320613 3.499242 62.611627 4.069254-32.253195-3.499242-78.872811-3.499242-115.390543-269.172469 79.168373-543.62283 179.448313-823.351083 163.614638-42.223132-5.277892-84.446265-63.334699-121.914017-106.08562l-56.19899-52.024177C185.093018 441.696189 0.488205 269.267471 0.488205 269.267471v52.778916s184.604813 172.428717 320.927474 298.612548a347627.271793 347627.271793 0 0 1 56.19899 52.024178z" fill="#5A3D1C" opacity=".14" p-id="3688"></path><path d="M1312.323985 683.761407c-242.783012 158.336747-559.456505 167.045268-839.184757 156.489485-31.667349 0-36.945241-35.097979-68.976765-63.255531A3460.729327 3460.729327 0 0 1 328.29805 709.142787c-100.095213-92.151987-195.878389-190.505496-286.198948-288.526497C28.994098 406.724879 21.520603 398.955823 0.488205 377.765088v26.389458c21.032398 21.185457 28.505892 28.954513 41.610897 42.851201 90.31528 98.021002 186.103734 196.374511 286.198948 288.526498a3448.574343 3448.574343 0 0 0 75.864413 67.852574c32.031524 28.157551 37.309415 63.25553 68.976765 63.25553 279.728252 10.555783 596.401746 1.847262 839.184757-156.489484 14.255585-11.405524 16.182016-38.211935 14.946989-68.770927-1.060856 18.984576-5.003441 34.427687-14.946989 42.381469z" fill="#FFE9A6" p-id="3689"></path></svg>