<?xml version="1.0" standalone="no"?><!DOCTYPE svg PUBLIC "-//W3C//DTD SVG 1.1//EN" "http://www.w3.org/Graphics/SVG/1.1/DTD/svg11.dtd"><svg t="1642516951726" class="icon" viewBox="0 0 1024 1024" version="1.1" xmlns="http://www.w3.org/2000/svg" p-id="4490" width="128" height="128" xmlns:xlink="http://www.w3.org/1999/xlink"><defs><style type="text/css"></style></defs><path d="M783.263396 229.530566l-1.738868-57.382641-69.554717 2.511698 5.023397-45.017359-59.12151 14.490566-30.913207-46.369811-45.017359 27.821887-30.333585-42.505661-52.359245 35.163774-39.993962-28.594717-41.732831 45.790189-53.132075-31.106416-25.503396 60.473963-76.896604-3.091321-8.887547 65.304151-57.382642-4.830189 7.341887 65.497359-61.246792 8.114717 25.310188 54.870943-67.815849 20.48 35.936604 73.612076L86.943396 489.781132l42.505661 51.393208-41.732831 60.667169 45.017359 38.448302-42.50566 40.96 58.928301 17.968302-22.02566 47.335849 50.620377 18.93434-27.821886 50.620377 66.270188 17.195472-9.080754 72.066415 58.155471-21.25283 5.796227 78.442264 67.815849-28.594717 18.934339 66.270189 66.270189-30.333585 17.968302 49.267924 46.563019-37.675471 39.414339 42.50566 26.083019-40.18717 30.333585 29.560755 36.709434-45.790189 35.163774 22.798491 14.876981-41.73283 47.335849 19.707169 5.023396-47.529056 62.21283 9.080755-14.876981-51.586416 52.359245 9.080755-12.172075-49.074717h57.962264l-23.571321-52.359245 63.758491 0.77283-35.163774-49.074717 53.132076-15.649811-33.424906-54.677736 43.278491-21.25283-27.821887-52.359246L937.056604 552.766792l-27.049057-32.845283 19.70717-36.709434-28.594717-30.333584L927.975849 425.056604l-44.051321-29.367547 21.25283-54.870944-50.813584-14.683773 5.796226-52.359246h-39.221132l4.057358-44.244528-43.471698-0.77283" fill="#4DAA5A" p-id="4491"></path><path d="M546.390943 173.886792h-57.962264s-10.046792-144.326038-3.864151-151.281509a108.389434 108.389434 0 0 1 65.883774 0c4.830189 7.148679-4.057358 151.281509-4.057359 151.281509z" fill="#604D42" p-id="4492"></path><path d="M169.829434 551.027925a386.028679 347.38717 90 1 0 694.77434 0 386.028679 347.38717 90 1 0-694.77434 0Z" fill="#FFF1B6" p-id="4493"></path><path d="M574.019623 242.282264c36.516226-14.876981 145.678491 10.819623 201.708679 144.905661a413.850566 413.850566 0 0 1-65.304151 415.396226c-65.883774 73.805283-139.882264 75.157736-167.704151 34.584151s0-126.357736 29.753962-199.583396 36.709434-162.873962 0-221.415849-63.758491-147.224151 1.545661-173.886793zM460.413585 242.282264c-36.516226-14.876981-145.678491 10.819623-201.708679 144.905661a413.850566 413.850566 0 0 0 65.304151 415.396226c65.883774 73.805283 139.882264 75.157736 167.704151 34.584151S492.679245 710.617358 461.959245 637.584906s-36.709434-162.873962 0-221.415849 63.758491-147.224151-1.54566-173.886793z" fill="#FFDC7B" p-id="4494"></path><path d="M516.830189 372.504151a693.808302 693.808302 0 0 1 19.320754 164.033207 908.075472 908.075472 0 0 1-17.002264 162.487548 1369.261887 1369.261887 0 0 1-19.320754-159.203019 968.163019 968.163019 0 0 1 17.002264-167.317736z" fill="#FFFFFF" p-id="4495"></path><path d="M676.999245 855.909434a330.384906 330.384906 0 0 1-188.956981 59.89434c-195.912453 0-355.501887-175.818868-355.501887-392.018114 0-177.750943 108.969057-333.669434 264.69434-378.88a9.660377 9.660377 0 0 0-5.409811-19.320754C227.791698 173.886792 113.219623 337.533585 113.219623 523.978868c0 226.82566 168.090566 411.338868 374.822641 411.338868a349.70566 349.70566 0 0 0 199.969811-63.372076 9.660377 9.660377 0 0 0-11.01283-15.843018zM711.390189 828.860377l-5.216604 4.636981a9.660377 9.660377 0 1 0 12.55849 14.683774l5.409812-4.636981a9.660377 9.660377 0 1 0-12.751698-14.490566zM760.271698 775.921509c-6.182642 8.114717-12.751698 16.036226-19.320755 23.764529a9.660377 9.660377 0 0 0 14.490566 12.944905q10.626415-11.978868 20.48-24.923773a9.660377 9.660377 0 0 0-15.456603-11.592453zM589.283019 128.289811a9.660377 9.660377 0 1 0-5.796227 19.320755c152.440755 47.335849 258.898113 202.481509 258.898114 377.33434a423.124528 423.124528 0 0 1-48.10868 196.87849 9.660377 9.660377 0 0 0 17.002265 9.080755 442.445283 442.445283 0 0 0 50.233962-205.766038C862.671698 340.818113 750.611321 178.137358 589.283019 128.289811z" fill="#604D42" p-id="4496"></path></svg>