<?xml version="1.0" standalone="no"?><!DOCTYPE svg PUBLIC "-//W3C//DTD SVG 1.1//EN" "http://www.w3.org/Graphics/SVG/1.1/DTD/svg11.dtd"><svg t="1642515786709" class="icon" viewBox="0 0 1024 1024" version="1.1" xmlns="http://www.w3.org/2000/svg" p-id="2201" width="128" height="128" xmlns:xlink="http://www.w3.org/1999/xlink"><defs><style type="text/css"></style></defs><path d="M762.980392 324.86902c23.692549-57.424314 110.230588-218.453333 110.230588-218.453334a2341.345882 2341.345882 0 0 1-200.784313 149.985883 989.264314 989.264314 0 0 1-123.482353 61.44L722.823529 463.209412a1031.629804 1031.629804 0 0 1 40.156863-138.340392zM742.901961 543.723922l14.657255 140.549019A634.88 634.88 0 0 0 966.776471 421.647059 1146.277647 1146.277647 0 0 1 823.215686 514.007843c-57.022745 29.515294-80.313725 29.716078-80.313725 29.716079zM198.575686 231.102745S58.227451 438.713725 48.188235 671.221961l164.040785-94.167843s-17.066667-24.495686-29.515295-108.825098c-15.661176-106.817255 15.861961-237.126275 15.861961-237.126275zM511.598431 841.487059l-66.058039 177.292549c227.689412-47.987451 409.6-220.862745 409.6-220.862745s-123.281569 52.404706-231.504314 54.412549c-85.132549 2.007843-112.037647-10.842353-112.037647-10.842353z" fill="#7EEA78" p-id="2202"></path><path d="M665.198431 887.466667c-128.301176 152.997647-341.333333 185.123137-494.732549 56.82196S12.247843 600.144314 140.54902 447.347451 506.779608 233.110588 659.777255 361.411765s133.722353 373.258039 5.421176 526.054902z" fill="#F24080" p-id="2203"></path><path d="M477.264314 370.246275s-7.830588-33.932549 8.83451-109.025883a1378.585098 1378.585098 0 0 1 62.644705-195.96549s-171.469804 182.312157-240.941176 323.865098zM339.727059 742.901961A425.461961 425.461961 0 0 1 220.862745 769.807059a399.560784 399.560784 0 0 1-97.380392-4.216471l231.102745 193.957647a297.562353 297.562353 0 0 1-22.688627-100.392157 867.990588 867.990588 0 0 1 7.830588-116.254117zM682.666667 567.416471a256.803137 256.803137 0 0 1-133.320785 45.377254l77.101177 70.876863c65.254902-71.880784 56.219608-116.254118 56.219608-116.254117zM291.739608 545.129412l73.487059 56.219608a299.77098 299.77098 0 0 1 31.322353-131.71451s-80.313725 33.932549-104.809412 75.494902z" fill="#7EEA78" p-id="2204"></path><path d="M851.526275 113.844706a1219.162353 1219.162353 0 0 0-89.951373 174.08c-13.05098 34.936471-31.523137 86.738824-40.156863 116.85647a10.039216 10.039216 0 0 0 7.027451 12.448628h2.610196a10.039216 10.039216 0 0 0 9.637647-7.42902c8.232157-29.716078 26.302745-80.313725 40.156863-115.250196 31.322353-83.727059 114.04549-212.429804 115.049412-213.63451a10.039216 10.039216 0 0 0-14.456471-13.452549c-1.204706 0-117.659608 86.538039-194.961568 132.517647-18.672941 11.243922-80.313725 47.385098-110.230589 60.235295a322.861176 322.861176 0 0 0-80.313725-17.66902c1.40549-6.224314 2.81098-12.850196 4.618039-20.078431a1380.793725 1380.793725 0 0 1 67.061961-192.552157 10.039216 10.039216 0 0 0-17.468235-9.838432 2126.707451 2126.707451 0 0 0-202.189804 240.941177 450.359216 450.359216 0 0 0-90.553726 40.156863 10.039216 10.039216 0 0 0 10.039216 17.468235 428.473725 428.473725 0 0 1 89.750588-38.550588 10.039216 10.039216 0 0 0 5.421177-4.015687A1929.537255 1929.537255 0 0 1 527.661176 72.282353a1255.102745 1255.102745 0 0 0-47.786666 145.970196c-3.011765 12.047059-5.220392 22.688627-7.228235 32.326275a10.039216 10.039216 0 0 0 9.236078 11.846274 303.987451 303.987451 0 0 1 90.352941 18.472157 10.039216 10.039216 0 0 0 7.228235 0 1249.28 1249.28 0 0 0 116.454902-63.046275c49.392941-29.31451 114.246275-74.49098 155.607844-104.006274zM981.232941 393.336471a10.039216 10.039216 0 0 0-15.259608-11.645491 1144.470588 1144.470588 0 0 1-144.76549 87.742745c-9.637647 4.618039-18.672941 8.83451-27.507451 12.448628a372.053333 372.053333 0 0 0-20.078431-34.334118 10.039216 10.039216 0 1 0-16.665098 11.043138 413.013333 413.013333 0 0 1 22.287059 40.156862 10.039216 10.039216 0 0 0 12.649411 5.019608c11.64549-4.417255 24.294902-10.039216 37.546667-16.464314a1065.763137 1065.763137 0 0 0 116.454902-68.065882 661.383529 661.383529 0 0 1-188.938039 215.642353 10.24 10.24 0 0 0-4.015687 6.224314 439.918431 439.918431 0 0 1-65.054117 160.627451 10.039216 10.039216 0 0 0 10.039216 15.460392 807.755294 807.755294 0 0 0 100.392156-25.298824 1060.542745 1060.542745 0 0 1-198.374902 121.876079 10.039216 10.039216 0 1 0 8.432942 18.271372 1066.164706 1066.164706 0 0 0 246.763921-160.627451 10.039216 10.039216 0 0 0-10.641568-16.665098 848.916078 848.916078 0 0 1-128.301177 38.952157 460.197647 460.197647 0 0 0 55.014902-144.966274 637.891765 637.891765 0 0 0 210.020392-255.397647zM537.700392 940.67451q-16.062745 5.822745-32.527059 11.243921a10.039216 10.039216 0 0 0 3.011765 20.078432h3.011765c11.243922-3.614118 22.487843-7.42902 33.53098-11.444706a10.039216 10.039216 0 0 0-6.826667-18.873726z" fill="#604D42" p-id="2205"></path><path d="M453.973333 966.776471a318.84549 318.84549 0 0 1-275.074509-70.073726A321.254902 321.254902 0 0 1 63.046275 622.431373a9.637647 9.637647 0 0 0 0-3.011765c7.629804-160.627451 78.908235-310.412549 120.470588-384.100392-1.40549 9.637647-3.011765 20.078431-4.216471 31.322353a709.571765 709.571765 0 0 0-5.421176 98.785882 10.039216 10.039216 0 0 0 10.039215 9.838431 10.039216 10.039216 0 0 0 9.838432-10.24 693.50902 693.50902 0 0 1 5.220392-95.974902 820.003137 820.003137 0 0 1 14.45647-84.931764 10.039216 10.039216 0 0 0-18.070588-8.031373C193.15451 178.497255 52.404706 388.919216 42.566275 622.431373a9.436863 9.436863 0 0 0 0 2.409411A348.360784 348.360784 0 0 0 386.108235 993.882353a350.368627 350.368627 0 0 0 71.880785-7.629804 10.039216 10.039216 0 0 0 7.830588-11.846274 9.838431 9.838431 0 0 0-11.846275-7.629804z" fill="#604D42" p-id="2206"></path><path d="M192.351373 454.776471A265.637647 265.637647 0 0 0 141.95451 522.039216C120.470588 562.196078 111.23451 591.309804 115.651765 591.10902S137.336471 557.979608 160.627451 527.861961a590.506667 590.506667 0 0 1 49.995294-60.235294c23.090196-23.491765-1.606275-25.901176-18.271372-12.850196zM251.582745 413.013333c5.220392 5.621961 1.807059 12.649412-4.618039 18.271373s-14.054902 7.830588-19.07451 2.007843a14.456471 14.456471 0 0 1 2.81098-18.672941 17.066667 17.066667 0 0 1 20.881569-1.606275z" fill="#FFFFFF" p-id="2207"></path></svg>