<?xml version="1.0" standalone="no"?><!DOCTYPE svg PUBLIC "-//W3C//DTD SVG 1.1//EN" "http://www.w3.org/Graphics/SVG/1.1/DTD/svg11.dtd"><svg t="1642516606193" class="icon" viewBox="0 0 1140 1024" version="1.1" xmlns="http://www.w3.org/2000/svg" p-id="3849" width="142.5" height="128" xmlns:xlink="http://www.w3.org/1999/xlink"><defs><style type="text/css"></style></defs><path d="M552.727273 135.214545c109.614545-79.592727 223.883636 12.567273 223.883636 12.567273a125.207273 125.207273 0 0 1 116.363636 33.745455c98.909091 96.116364 34.210909 280.901818-79.825454 333.032727-99.84 46.545455-274.618182-15.592727-320.698182-107.752727a214.109091 214.109091 0 0 1 60.276364-271.592728z" fill="#472A66" p-id="3850"></path><path d="M640.465455 461.498182s1.396364-188.741818 175.70909-235.985455c161.047273-43.52 257.861818 9.541818 257.861819 9.541818s-36.538182 102.865455-198.516364 192.465455a312.552727 312.552727 0 0 1-235.054545 33.978182z" fill="#73D36E" p-id="3851"></path><path d="M778.938182 377.949091a114.269091 114.269091 0 0 0-84.247273 6.516364c-58.414545 23.272727-116.363636 102.4-105.192727 226.443636 9.309091 104.727273 58.181818 245.294545 145.454545 308.363636 93.090909 66.327273 199.447273 65.629091 248.32 44.916364 71.214545-30.254545 139.636364-135.447273 133.585455-251.345455-8.378182-147.549091-125.672727-332.101818-225.978182-354.676363a125.905455 125.905455 0 0 0-111.941818 19.781818z" fill="#472A66" p-id="3852"></path><path d="M850.850909 444.741818a232.727273 232.727273 0 0 0-72.145454-67.025454 84.712727 84.712727 0 0 1 19.083636-12.101819A304.872727 304.872727 0 0 1 874.123636 442.181818a493.149091 493.149091 0 0 1 75.636364 167.796364 476.392727 476.392727 0 0 1 4.654545 179.2 985.832727 985.832727 0 0 0-23.272727-171.52 469.178182 469.178182 0 0 0-80.290909-172.916364z" fill="#8875A0" p-id="3853"></path><path d="M770.56 802.909091a555.985455 555.985455 0 0 1-40.261818-61.905455c-14.429091-27.694545-23.272727-6.283636-16.290909 12.334546a250.181818 250.181818 0 0 0 46.545454 64c30.254545 31.185455 53.992727 46.545455 55.156364 43.054545S791.272727 831.534545 770.56 802.909091zM692.829091 688.407273a16.058182 16.058182 0 0 0-4.421818 19.083636 13.498182 13.498182 0 0 0 16.058182 7.912727c6.749091-2.792727 6.749091-10.24 3.490909-17.687272s-9.774545-12.334545-15.127273-9.309091z" fill="#FFFFFF" p-id="3854"></path><path d="M592.756364 349.090909s19.549091-186.181818-148.48-253.44C289.28 34.210909 186.181818 76.101818 186.181818 76.101818s24.901818 106.356364 175.709091 213.410909A312.552727 312.552727 0 0 0 592.756364 349.090909z" fill="#73D36E" p-id="3855"></path><path d="M505.250909 249.716364s35.84-10.24 93.090909 23.272727c60.741818 35.607273 110.08 135.68 74.472727 271.36-30.021818 114.734545-110.545455 262.050909-219.461818 315.578182-114.734545 56.552727-234.123636 35.607273-284.392727 3.490909-73.541818-46.545455-130.56-176.872727-101.469091-304.64C104.029091 395.636364 268.8 212.945455 384.698182 206.661818c84.247273-4.654545 120.552727 43.054545 120.552727 43.054546z" fill="#472A66" p-id="3856"></path><path d="M412.625455 310.690909a261.585455 261.585455 0 0 1 93.090909-60.974545 95.650909 95.650909 0 0 0-19.083637-16.989091 343.738182 343.738182 0 0 0-98.909091 69.818182 556.218182 556.218182 0 0 0-116.363636 172.450909A537.134545 537.134545 0 0 0 232.727273 674.909091a1111.738182 1111.738182 0 0 1 57.250909-186.181818 528.989091 528.989091 0 0 1 122.647273-178.036364z" fill="#8875A0" p-id="3857"></path><path d="M154.530909 446.370909A272.058182 272.058182 0 0 0 116.363636 523.403636c-14.196364 45.149091-16.756364 76.101818-12.334545 74.938182s15.127273-37.469091 31.883636-72.378182a605.090909 605.090909 0 0 1 37.934546-69.818181c20.014545-28.858182-5.352727-26.530909-19.316364-9.774546zM205.498182 392.610909a17.454545 17.454545 0 0 0-20.48 5.585455 14.661818 14.661818 0 0 0 0 19.316363c6.050909 4.887273 13.265455 0 18.618182-5.818182s8.145455-14.661818 1.861818-19.083636z" fill="#FFFFFF" p-id="3858"></path><path d="M93.090909 365.614545a11.636364 11.636364 0 0 0 16.058182-3.490909c69.818182-109.381818 169.192727-188.276364 240.407273-192.232727 76.334545-3.956364 109.149091 37.236364 110.545454 39.563636a11.636364 11.636364 0 1 0 18.385455-14.196363 99.84 99.84 0 0 0-18.385455-17.221818 205.730909 205.730909 0 0 1 63.301818-80.989091c101.003636-73.309091 205.498182 8.843636 209.454546 12.334545a11.636364 11.636364 0 0 0 10.705454 2.094546 113.803636 113.803636 0 0 1 105.658182 30.487272 11.636364 11.636364 0 0 0 16.290909-16.756363 136.843636 136.843636 0 0 0-122.414545-37.934546c-23.272727-16.523636-130.792727-83.781818-232.727273-9.541818A209.454545 209.454545 0 0 0 465.454545 121.483636 242.036364 242.036364 0 0 0 386.094545 69.818182C228.538182 8.145455 124.509091 49.338182 120.087273 50.967273a11.636364 11.636364 0 0 0-6.981818 13.498182c0 2.792727 16.756364 68.421818 95.650909 148.48A596.945455 596.945455 0 0 0 89.367273 349.090909a11.636364 11.636364 0 0 0 3.723636 16.523636zM139.636364 69.818182c28.858182-8.145455 116.363636-25.134545 238.312727 23.272727a218.065455 218.065455 0 0 1 75.403636 49.105455 235.985455 235.985455 0 0 0-12.567272 23.272727 174.312727 174.312727 0 0 0-93.09091-18.385455 236.916364 236.916364 0 0 0-120.32 51.432728A374.923636 374.923636 0 0 1 139.636364 69.818182zM66.56 412.858182a11.636364 11.636364 0 0 0 15.592727-4.887273l6.981818-13.032727a11.636364 11.636364 0 0 0-19.316363-11.170909l-7.214546 13.498182a11.636364 11.636364 0 0 0 3.956364 15.592727z" fill="#604D42" p-id="3859"></path><path d="M1092.189091 663.738182a486.632727 486.632727 0 0 0-162.909091-319.069091 336.523636 336.523636 0 0 0 93.090909-120.32 11.636364 11.636364 0 0 0-5.12-14.894546c-4.189091-2.327273-102.865455-54.690909-266.472727-10.472727A232.727273 232.727273 0 0 0 628.363636 279.272727a171.054545 171.054545 0 0 0-60.043636-63.534545 11.636364 11.636364 0 0 0-11.869091 20.014545c57.018182 33.512727 103.098182 128.465455 69.818182 258.327273C595.781818 605.090909 516.654545 749.614545 411.927273 801.28 302.545455 854.807273 186.181818 835.956364 139.636364 805.236364 69.818182 761.716364 14.196364 637.672727 42.356364 512a396.8 396.8 0 0 1 18.385454-58.647273 11.636364 11.636364 0 0 0-21.643636-8.610909 420.305455 420.305455 0 0 0-19.549091 62.138182C-10.938182 642.327273 51.2 777.076364 126.370909 825.018182a275.083636 275.083636 0 0 0 139.636364 33.745454 352.116364 352.116364 0 0 0 155.927272-36.538181c111.243636-54.923636 195.025455-205.963636 225.512728-323.025455a305.570909 305.570909 0 0 0-7.912728-196.654545 209.454545 209.454545 0 0 1 116.363637-79.36c125.672727-33.978182 211.549091-7.214545 239.476363 3.956363a357.003636 357.003636 0 0 1-84.945454 104.261818 170.123636 170.123636 0 0 0-53.992727-24.901818 184.087273 184.087273 0 0 0-157.323637 37.236364 11.636364 11.636364 0 0 0 15.36 17.454545 162.909091 162.909091 0 0 1 136.610909-32.116363c97.512727 23.272727 209.454545 196.189091 217.134546 336.756363 6.283636 112.407273-60.741818 212.247273-126.603637 239.941818-46.545455 19.549091-150.109091 18.850909-236.916363-43.52a11.636364 11.636364 0 1 0-13.498182 18.85091 312.32 312.32 0 0 0 181.76 59.345454 207.592727 207.592727 0 0 0 77.963636-13.265454c73.076364-31.650909 148.247273-140.8 141.265455-263.447273z" fill="#604D42" p-id="3860"></path><path d="M666.996364 825.716364a11.636364 11.636364 0 1 0-17.687273 15.127272l6.981818 7.912728a11.636364 11.636364 0 0 0 16.989091-15.825455zM618.821818 751.941818a11.636364 11.636364 0 1 0-20.712727 10.472727 434.734545 434.734545 0 0 0 23.272727 42.123637 11.636364 11.636364 0 1 0 19.549091-12.8 398.196364 398.196364 0 0 1-22.109091-39.796364z" fill="#604D42" p-id="3861"></path></svg>